<?xml version="1.0" encoding="utf-8"?>
<!-- Generator: Adobe Illustrator 22.0.1, SVG Export Plug-In . SVG Version: 6.00 Build 0)  -->
<!DOCTYPE svg PUBLIC "-//W3C//DTD SVG 1.1//EN" "http://www.w3.org/Graphics/SVG/1.1/DTD/svg11.dtd">
<svg version="1.1" id="Layer_1" xmlns="http://www.w3.org/2000/svg" xmlns:xlink="http://www.w3.org/1999/xlink" x="0px" y="0px"
	 viewBox="0 0 512 512" style="enable-background:new 0 0 512 512;" xml:space="preserve">
<style type="text/css">
	.st0{fill:#5E3E81;}
</style>
<path class="st0" d="M461.9,65.9H50.1c-26.2,0-47.5,21.3-47.5,47.5v285.1c0,26.2,21.3,47.5,47.5,47.5h411.8
	c26.2,0,47.5-21.3,47.5-47.5V113.4C509.4,87.2,488.2,65.9,461.9,65.9z M50.1,97.6h411.8c8.7,0,15.8,7.1,15.8,15.8v41
	c-21.7,18.3-52.7,43.6-149.1,120.1c-16.7,13.3-49.7,45.2-72.7,44.8c-23,0.4-56-31.6-72.7-44.8C86.9,198,55.9,172.7,34.2,154.4v-41
	C34.2,104.7,41.4,97.6,50.1,97.6z M461.9,414.4H50.1c-8.7,0-15.8-7.1-15.8-15.8V195.6c22.6,18.5,58.2,47.1,129.4,103.7
	c20.3,16.2,56.1,52,92.4,51.8c36,0.3,71.6-35.1,92.4-51.8c71.2-56.5,106.8-85.1,129.4-103.7v202.9
	C477.8,407.3,470.6,414.4,461.9,414.4z"/>
</svg>
