<?xml version="1.0" encoding="utf-8"?>
<!-- Generator: Adobe Illustrator 22.0.1, SVG Export Plug-In . SVG Version: 6.00 Build 0)  -->
<!DOCTYPE svg PUBLIC "-//W3C//DTD SVG 1.1//EN" "http://www.w3.org/Graphics/SVG/1.1/DTD/svg11.dtd">
<svg version="1.1" id="Layer_1" xmlns="http://www.w3.org/2000/svg" xmlns:xlink="http://www.w3.org/1999/xlink" x="0px" y="0px"
	 viewBox="0 0 512 512" style="enable-background:new 0 0 512 512;" xml:space="preserve">
<style type="text/css">
	.st0{fill:#5E3E81;}
</style>
<path class="st0" d="M432.1,99.5l-83.1-83.1c-8.9-8.9-21-14-33.6-14H113.4C87.2,2.6,65.9,23.8,65.9,50.1v411.8
	c0,26.2,21.3,47.5,47.5,47.5h285.1c26.2,0,47.5-21.3,47.5-47.5V133.1C446.1,120.6,441,108.4,432.1,99.5z M409.7,122
	c2.1,2.1,3.5,4.6,4.2,7.3h-94.5V34.7c2.8,0.7,5.2,2.1,7.3,4.2L409.7,122z M398.6,477.8H113.4c-8.7,0-15.8-7.1-15.8-15.8V50.1
	c0-8.7,7.1-15.8,15.8-15.8h174.2v103c0,13.2,10.6,23.8,23.8,23.8h103v301C414.4,470.6,407.3,477.8,398.6,477.8z M351,236.2v7.9
	c0,6.5-5.3,11.9-11.9,11.9H172.8c-6.5,0-11.9-5.3-11.9-11.9v-7.9c0-6.5,5.3-11.9,11.9-11.9h166.3C345.7,224.3,351,229.7,351,236.2z
	 M351,299.6v7.9c0,6.5-5.3,11.9-11.9,11.9H172.8c-6.5,0-11.9-5.3-11.9-11.9v-7.9c0-6.5,5.3-11.9,11.9-11.9h166.3
	C345.7,287.7,351,293,351,299.6z M351,362.9v7.9c0,6.5-5.3,11.9-11.9,11.9H172.8c-6.5,0-11.9-5.3-11.9-11.9v-7.9
	c0-6.5,5.3-11.9,11.9-11.9h166.3C345.7,351,351,356.4,351,362.9z"/>
</svg>
